<?xml version="1.0" standalone="no"?>
<!DOCTYPE svg PUBLIC "-//W3C//DTD SVG 20010904//EN"
 "http://www.w3.org/TR/2001/REC-SVG-20010904/DTD/svg10.dtd">
<svg version="1.0" xmlns="http://www.w3.org/2000/svg"
 width="512.000000pt" height="512.000000pt" viewBox="0 0 512.000000 512.000000"
 preserveAspectRatio="xMidYMid meet">
<g transform="translate(0.000000,512.000000) scale(0.100000,-0.100000)"
fill="#000000" stroke="none">
<path d="M2521 4663 c-18 -65 -43 -158 -57 -208 -13 -49 -41 -155 -63 -235
-34 -126 -46 -173 -57 -215 -1 -5 -25 -95 -54 -200 -134 -496 -285 -1057 -299
-1118 l-16 -68 -51 -15 c-28 -8 -60 -17 -70 -19 -26 -6 -268 -72 -329 -90 -27
-9 -59 -17 -70 -19 -31 -7 -316 -85 -352 -96 -18 -6 -40 -13 -50 -14 -10 -2
-38 -10 -63 -17 -25 -7 -49 -13 -55 -14 -19 -4 -210 -57 -255 -70 -25 -8 -142
-40 -260 -71 -118 -32 -217 -59 -220 -61 -2 -2 358 -366 800 -808 443 -443
808 -801 811 -797 4 4 35 111 69 237 34 127 72 268 85 315 20 70 105 385 160
595 8 28 26 95 41 150 15 55 35 129 44 165 10 36 29 108 43 160 14 53 30 107
36 122 10 26 11 27 221 82 30 8 88 23 129 35 41 11 77 19 79 16 3 -3 -2 -31
-11 -62 -8 -32 -36 -134 -61 -228 -106 -400 -176 -662 -186 -695 -14 -48 -110
-410 -115 -435 -3 -11 -24 -91 -48 -178 l-44 -159 153 -154 c84 -85 154 -154
157 -154 2 0 10 21 17 48 7 26 23 86 37 133 13 47 25 95 28 105 2 10 49 186
105 389 56 204 103 377 105 385 7 29 115 425 125 460 6 19 40 143 75 275 36
132 74 274 86 316 l21 77 57 15 c31 9 175 48 321 87 146 39 330 90 410 112 80
22 153 41 164 44 10 2 44 11 75 20 31 9 63 18 71 20 8 1 56 14 105 28 50 13
133 35 185 49 52 14 147 39 210 57 63 17 126 34 140 36 13 3 27 7 29 10 5 5
-1600 1614 -1610 1614 -3 0 -6 -6 -7 -12 0 -7 -14 -62 -31 -123 -17 -60 -33
-119 -35 -130 -2 -11 -13 -54 -25 -95 -31 -110 -92 -332 -96 -354 -3 -10 -15
-58 -29 -105 -13 -47 -68 -248 -121 -446 -53 -198 -106 -391 -116 -429 -10
-39 -22 -73 -26 -76 -8 -7 -192 -59 -268 -75 -11 -3 -49 -14 -84 -25 -36 -10
-67 -18 -69 -16 -1 2 20 91 48 197 28 107 53 201 55 209 2 8 70 265 151 570
81 305 158 601 172 657 l26 103 -144 145 c-80 80 -146 150 -148 155 -9 26 -21
0 -51 -107z m1657 -1458 c-2 -2 -240 -66 -298 -80 -45 -11 -249 -67 -275 -75
-16 -5 -41 -12 -55 -14 -14 -3 -80 -20 -147 -39 -68 -19 -125 -32 -127 -30 -3
3 -1 15 4 26 5 12 45 157 89 322 44 165 90 336 101 380 12 44 26 98 31 119 6
22 12 43 14 47 3 4 153 -142 335 -324 182 -181 329 -331 328 -332z m-2333
-1072 c-8 -27 -28 -102 -45 -168 -17 -66 -39 -149 -50 -185 -10 -36 -44 -164
-76 -285 -31 -121 -59 -222 -60 -224 -2 -2 -153 145 -335 328 -183 182 -330
333 -328 335 2 2 31 10 64 19 73 19 359 97 625 171 107 30 200 55 207 55 9 1
8 -11 -2 -46z"/>
</g>
</svg>
