<svg xmlns="http://www.w3.org/2000/svg" viewBox="0 0 34.05 33.12"><defs><style>.cls-1{fill:#689915;}</style></defs><g id="Layer_2" data-name="Layer 2"><g id="Resume"><g id="ResumeContent"><g id="Software"><g id="SubstanceP_copy_2" data-name="SubstanceP copy 2"><path class="cls-1" d="M0,0V33.12H34.05V0ZM32.05,31.18H2V1.94H32.05Z"/><g id="sp_copy_2" data-name="sp copy 2"><path class="cls-1" d="M23.86,18.77a6.87,6.87,0,0,1-6.93,6.8A6.8,6.8,0,1,1,16.87,12,6.88,6.88,0,0,1,23.86,18.77Zm-2.23-.23a2.11,2.11,0,0,0,0-.23v-2a.26.26,0,0,0-.17-.28l-4.4-2.48a.29.29,0,0,0-.32,0c-1.47.83-2.93,1.66-4.41,2.48a.29.29,0,0,0-.16.29c0,.65,0,1.31,0,2,0,.21.06.29.26.35l5.28,1.62,1.05.33c-.6.34-1.16.65-1.71,1a.27.27,0,0,1-.3,0c-.89-.5-1.78-1-2.68-1.49-.15-.08-.22-.17-.19-.33s-.05-.21-.19-.25l-1.31-.41-.18,0a.74.74,0,0,0,0,.12c0,.72,0,1.44,0,2.16a.29.29,0,0,0,.15.21L16.74,24a.3.3,0,0,0,.35,0l4.41-2.47a.27.27,0,0,0,.15-.26c0-.68,0-1.35,0-2a.25.25,0,0,0-.21-.28l-5.05-1.55L15,17l.18-.12L16.74,16a.32.32,0,0,1,.35,0l2.68,1.54c.12.07.19.14.17.28s0,.2.17.24c.43.12.85.26,1.28.39Z"/><path class="cls-1" d="M27.11,24a1.8,1.8,0,1,1-1.78-1.77A1.79,1.79,0,0,1,27.11,24Z"/><path class="cls-1" d="M18,9.67a1.12,1.12,0,1,1-1.13-1.11A1.1,1.1,0,0,1,18,9.67Z"/><path class="cls-1" d="M9.62,24.7a.79.79,0,0,1-.79-.77.79.79,0,0,1,1.58,0A.79.79,0,0,1,9.62,24.7Z"/></g></g></g></g></g></g></svg>