<svg xmlns="http://www.w3.org/2000/svg" viewBox="0 0 34.05 33.12"><defs><style>.cls-1{fill:#689915;}</style></defs><g id="Layer_2" data-name="Layer 2"><g id="Resume"><g id="ResumeContent"><g id="Software"><g id="ZBrush_copy_2" data-name="ZBrush copy 2"><path class="cls-1" d="M0,0V33.12H34.05V0ZM32.05,31.18H2V1.94H32.05Z"/><g id="ZBrush_copy_2-2" data-name="ZBrush copy 2"><path class="cls-1" d="M18.54,14.37c-1-.55-2.05-1.18-3.13-1.65a3.27,3.27,0,0,0-3.36,1.14,5.22,5.22,0,0,0-.25.82c-.12.28-.25.65-.49.78a12.21,12.21,0,0,1-1.8.7,1.2,1.2,0,0,1-.45-.05c0-.14,0-.31.09-.42a8.45,8.45,0,0,1,5.6-4.1,6.66,6.66,0,0,1,3.48.31c.75.26,1.48.57,2.22.83a.88.88,0,0,0,.59-.08A8.86,8.86,0,0,1,22.33,12a2.93,2.93,0,0,1,1.38,0,.84.84,0,0,1,.58,1.22,3.71,3.71,0,0,1-4.51,1.94.64.64,0,0,0-.86.16c-.61.69-1.24,1.36-1.85,2a.86.86,0,0,0-.13.21A11.9,11.9,0,0,1,26.38,23a14.32,14.32,0,0,1,.9,1.74c.06.14,0,.41,0,.47a.6.6,0,0,1-.52,0c-.92-.64-1.84-1.3-2.72-2a.77.77,0,0,1-.17-.65c.14-.91,0-1.35-.87-1.73a12.34,12.34,0,0,0-2.89-.93c-1.47-.22-3-.26-4.46-.34a1.13,1.13,0,0,0-.75.36A15.57,15.57,0,0,1,9.8,23.83a11.2,11.2,0,0,1-2.21.64c-.74.15-1.08-.24-.71-.86a9.69,9.69,0,0,1,1.75-2.22,16.84,16.84,0,0,1,6.59-3.56,1.12,1.12,0,0,0,.44-.25Zm-4.77,5.52-.09-.11a11.14,11.14,0,0,0-4.62,1.9A5.61,5.61,0,0,0,8,23.05a.47.47,0,0,0,0,.46.67.67,0,0,0,.52.13,3.13,3.13,0,0,0,1-.36c1-.62,1.92-1.25,2.83-2A14.07,14.07,0,0,0,13.77,19.89Zm7.89-6.77c1.11.35,1.91.19,2.22-.43A2,2,0,0,0,21.66,13.12Z"/><path class="cls-1" d="M19.26,10.92c-1.23,0-2-.55-2-1.36A1.8,1.8,0,0,1,19,7.84a1.6,1.6,0,0,1,.8.32,2.94,2.94,0,0,1,1.11,1.7c.13.52,0,.78-.56.9S19.49,10.89,19.26,10.92Z"/></g></g></g></g></g></g></svg>