<?xml version="1.0" encoding="utf-8"?><svg xmlns="http://www.w3.org/2000/svg" viewBox="0 0 365.46 279.82"  xmlns:v="https://vecta.io/nano"><path d="M317.87 73l.2 8.77c0 89.64-68.24 193-193 193v-.06a192 192 0 0 1-104-30.41 138.18 138.18 0 0 0 16.14 1 136.18 136.18 0 0 0 84.26-29.1 67.92 67.92 0 0 1-63.38-47.11A67.6 67.6 0 0 0 88.71 168a67.84 67.84 0 0 1-54.42-66.49v-.86a67.41 67.41 0 0 0 30.79 8.49 67.92 67.92 0 0 1-21-90.58A192.59 192.59 0 0 0 183.9 89.38a67.9 67.9 0 0 1 115.61-61.87A136.51 136.51 0 0 0 342.59 11a68.09 68.09 0 0 1-29.82 37.52 135.21 135.21 0 0 0 39-10.68A137.93 137.93 0 0 1 317.87 73z" fill="none" stroke="#f0f5f5" stroke-miterlimit="10" stroke-width="10"/><defs /></svg>