<?xml version="1.0" encoding="utf-8"?><svg xmlns="http://www.w3.org/2000/svg" viewBox="0 0 419.11 310"  xmlns:v="https://vecta.io/nano"><g fill="none" stroke="#f0f5f5" stroke-linejoin="round" stroke-width="10"><path d="M209.56,5C96.58,5,5,66.88,5,143.21c0,33.46,17.6,64.14,46.88,88.06,2.26,2.44,24.76,27.66,8.41,44-17.2,17.2-40.55,29.49-40.55,29.49s29.38,1.61,75-3.69c52.82-6.14,62.41-16.74,83.54-20.88,7.69-1.51,20.19,1.23,31.33,1.23,113,0,204.55-61.88,204.55-138.22S322.53,5,209.56,5Z"/><circle cx="307.32" cy="148.92" r="29.87"/><circle cx="209.56" cy="148.92" r="29.87"/><circle cx="116.14" cy="148.92" r="29.87"/></g><defs /></svg>