<?xml version="1.0" encoding="utf-8"?><svg xmlns="http://www.w3.org/2000/svg" viewBox="0 0 340.57 340.57"  xmlns:v="https://vecta.io/nano"><path d="M170.28 34.78c44.14 0 49.36.17 66.79 1 16.12.74 24.87 3.43 30.69 5.7a51.09 51.09 0 0 1 19 12.36 51.26 51.26 0 0 1 12.36 19c2.27 5.83 5 14.58 5.69 30.7.8 17.42 1 22.65 1 66.78s-.17 49.36-1 66.79c-.73 16.12-3.42 24.87-5.69 30.69a54.67 54.67 0 0 1-31.37 31.37c-5.82 2.27-14.57 5-30.69 5.69-17.42.8-22.65 1-66.79 1s-49.36-.17-66.78-1c-16.12-.73-24.87-3.42-30.7-5.69a51.14 51.14 0 0 1-19-12.36 51.09 51.09 0 0 1-12.36-19c-2.27-5.82-5-14.57-5.7-30.69-.79-17.43-1-22.65-1-66.79l1-66.78c.74-16.12 3.43-24.87 5.7-30.7a51.14 51.14 0 0 1 12.36-19 51.14 51.14 0 0 1 19-12.36c5.83-2.27 14.58-5 30.69-5.7 17.43-.79 22.66-1 66.79-1m0-29.78c-44.88 0-50.51.19-68.14 1S72.53 9.59 62 13.68a81 81 0 0 0-29.26 19.06A81 81 0 0 0 13.68 62C9.59 72.53 6.8 84.55 6 102.14s-1 23.26-1 68.14l1 68.15c.81 17.63 3.6 29.61 7.69 40.12a81 81 0 0 0 19.06 29.28A81 81 0 0 0 62 326.89c10.51 4.09 22.52 6.88 40.12 7.68s23.26 1 68.14 1 50.52-.19 68.15-1 29.59-3.57 40.14-7.68a84.45 84.45 0 0 0 48.34-48.34c4.11-10.55 6.88-22.55 7.68-40.12s1-23.26 1-68.15l-1-68.14c-.81-17.63-3.57-29.61-7.68-40.14a81 81 0 0 0-19.06-29.28 81 81 0 0 0-29.28-19.06C268 9.59 256 6.8 238.43 6s-23.26-1-68.15-1zm0 80.41a84.88 84.88 0 1 0 84.88 84.87 84.87 84.87 0 0 0-84.87-84.88zm0 140a55.1 55.1 0 1 1 55.1-55.1 55.1 55.1 0 0 1-55.09 55.06zM278.35 82.06a19.84 19.84 0 1 1-19.84-19.84 19.83 19.83 0 0 1 19.84 19.84z" fill="none" stroke="#f0f5f5" stroke-miterlimit="10" stroke-width="10"/><defs /></svg>