<?xml version="1.0" encoding="utf-8"?><svg xmlns="http://www.w3.org/2000/svg" viewBox="0 0 341.54 343.64"  xmlns:v="https://vecta.io/nano"><path d="M312 5H29.5C16 5 5 15.7 5 28.9v285.84c0 13.2 11 23.9 24.5 23.9H312c13.53 0 24.5-10.7 24.5-23.9V28.9C336.54 15.7 325.57 5 312 5zM105.5 284.29H55.42V133.63h50.08zm-25-171.23h-.33c-16.8 0-27.67-11.56-27.67-26 0-14.78 11.2-26 28.33-26s27.68 11.24 28 26c-.04 14.44-10.91 26-28.37 26zm205.6 171.23H236v-80.6c0-20.25-7.25-34.07-25.37-34.07-13.83 0-22.07 9.32-25.69 18.32-1.32 3.22-1.65 7.72-1.65 12.22v84.13h-50.08V133.63h50.07V155c6.66-10.26 18.55-24.87 45.13-24.87 33 0 57.65 21.53 57.65 67.81z" fill="none" stroke="#f0f5f5" stroke-miterlimit="10" stroke-width="10"/><defs /></svg>