<svg xmlns="http://www.w3.org/2000/svg" viewBox="0 0 34.05 33.12"><defs><style>.cls-1{fill:#689915;}</style></defs><g id="Layer_2" data-name="Layer 2"><g id="Resume"><g id="ResumeContent"><g id="Software"><g id="SubstanceD_copy_2" data-name="SubstanceD copy 2"><path class="cls-1" d="M0,0V33.12H34.05V0ZM32.05,31.18H2V1.94H32.05Z"/><g id="sd_copy_2" data-name="sd copy 2"><path class="cls-1" d="M16.81,11.09c.1,0,.1-.06.1-.18,0-.81,0-2.36,0-3.18,0-.31.32-.52.55-.36a.49.49,0,0,1,.2.33c0,.67,0,2.77,0,3.16,0,.19.07.24.25.24h5.36a.92.92,0,0,1,1,1c0,1.15,0,2.29,0,3.43,0,.63,0,1.25,0,1.87,0,.14.06.2.2.2,1.05,0,2.09,0,3.13,0a1.32,1.32,0,0,1,.39.1.25.25,0,0,1,.16.32.66.66,0,0,1-.26.29.54.54,0,0,1-.29,0H24.57c-.16,0-.25,0-.24.21,0,.95,0,1.89,0,2.84,0,.77,0,1.54,0,2.32a1,1,0,0,1-1.06,1.1q-6,0-12,0a1,1,0,0,1-1-1c0-1.67,0-3.34,0-5v-.2c0-.24,0-.25-.26-.25-1.07,0-2.15,0-3.23,0a.38.38,0,0,1-.36-.36.36.36,0,0,1,.36-.37c.47,0,.94,0,1.42,0H10c.18,0,.25-.05.25-.23,0-1.75,0-3.49,0-5.24a.9.9,0,0,1,.53-.88,1.25,1.25,0,0,1,.55-.1h5.45Zm-4.24,7.05a.5.5,0,0,0,0,.14c0,.73,0,1.46,0,2.19a.32.32,0,0,0,.13.21l.92.52,3.56,2a.3.3,0,0,0,.35,0c.31-.19.62-.36.94-.54,1.16-.65,2.32-1.29,3.48-1.95a.31.31,0,0,0,.16-.23c0-.72,0-1.45,0-2.18a.25.25,0,0,0-.14-.18l-2.36-.72-3.45-1.07-.64-.21.12-.08c.54-.3,1.07-.61,1.62-.9a.19.19,0,0,1,.18,0c.91.51,1.81,1,2.72,1.53.15.09.25.17.23.36a.18.18,0,0,0,.1.17c.48.17.95.32,1.43.46.12,0,.2,0,.2-.12,0-.72,0-1.44,0-2.16a.3.3,0,0,0-.12-.22c-.21-.13-.43-.25-.65-.37l-3.57-2c-.24-.13-.46-.29-.74,0a2.14,2.14,0,0,1-.3.17l-4,2.25a.29.29,0,0,0-.15.2c0,.74,0,1.48,0,2.22a.26.26,0,0,0,.11.17,5.25,5.25,0,0,0,.52.17l2.49.75,2.46.74,1,.33-1.8,1L14.5,19.2a.33.33,0,0,1-.21-.37c0-.13,0-.2-.18-.23s-.52-.16-.78-.24Z"/></g></g></g></g></g></g></svg>