<svg xmlns="http://www.w3.org/2000/svg" viewBox="0 0 34.05 33.12"><defs><style>.cls-1{fill:#689915;}</style></defs><g id="Layer_2" data-name="Layer 2"><g id="Resume"><g id="ResumeContent"><g id="Software"><g id="Software_Unused"><g id="icon_html"><path class="cls-1" d="M0,0V33.12H34.05V0ZM32.05,31.18H2V1.94H32.05Z"/></g><g id="icon_processing"><path class="cls-1" d="M11.43,24.35V23a.32.32,0,0,1,.22-.2l2-.3c.28,0,.34-.1.34-.37v-11c0-.25-.05-.36-.34-.38-.64-.06-1.28-.2-1.92-.28-.28,0-.36-.17-.34-.44s0-.74,0-1.16h5.33V22.37l2.6.4L19,24.21c0,.06-.2.1-.32.1h-7.3ZM18.76,10.8V9A.25.25,0,0,1,19,8.79a6.93,6.93,0,0,1,4.1,1.1,4.12,4.12,0,0,1,1.78,3.73A5,5,0,0,1,21,18.49c-.7.17-1.4.26-2.16.4V17c0-.07.16-.16.26-.2a10.8,10.8,0,0,0,1.13-.24,2.8,2.8,0,0,0,1.78-3c-.08-1.65-1-2.58-2.86-2.77Z"/></g></g></g></g></g></g></svg>