<svg xmlns="http://www.w3.org/2000/svg" viewBox="0 0 34.05 33.12"><defs><style>.cls-1{fill:#689915;}</style></defs><g id="Layer_2" data-name="Layer 2"><g id="Resume"><g id="ResumeContent"><g id="Software"><g id="C4D_copy_2" data-name="C4D copy 2"><path class="cls-1" d="M0,0V33.12H34.05V0ZM32.05,31.18H2V1.94H32.05Z"/><g id="C4D_copy_2-2" data-name="C4D copy 2"><path class="cls-1" d="M21.18,11a5.28,5.28,0,0,1,2.13,2.06,3.49,3.49,0,0,0-1.11,2.4,21,21,0,0,1-.74,3.27,5.39,5.39,0,0,1-4.08,3.69A4.71,4.71,0,0,1,14.59,22a4.43,4.43,0,0,1-2.78-4c-.24-2.19,1-3.54,2.78-4.58a12.57,12.57,0,0,1,4.25-1.3A3.4,3.4,0,0,0,21.18,11Z"/><path class="cls-1" d="M8.47,16.68A9.07,9.07,0,0,1,15.58,8a9.34,9.34,0,0,1,4.92.2c.35.11.76.16.8.64A1,1,0,0,1,20.63,10a15.44,15.44,0,0,1-2.36.68A13.23,13.23,0,0,0,12.48,13a6,6,0,0,0-1.31,8.74,6.56,6.56,0,0,0,6,2.62,5.77,5.77,0,0,0,3.3-1.4A9.65,9.65,0,0,0,23.6,17c.19-1.09.47-2.16.71-3.24,0-.06,0-.13,0-.17.28-.39.5-.9,1.08-.88s.69.53.84,1a8.41,8.41,0,0,1-1.44,8.5,8.81,8.81,0,0,1-6.35,3.31,9,9,0,0,1-7.34-2.62A8,8,0,0,1,8.64,18C8.59,17.56,8.53,17.12,8.47,16.68Z"/></g></g></g></g></g></g></svg>