<?xml version="1.0" encoding="utf-8"?><svg xmlns="http://www.w3.org/2000/svg" viewBox="0 0 340 340"  xmlns:v="https://vecta.io/nano"><g fill="none" stroke="#f0f5f5" stroke-width="10"><rect x="5" y="5" width="330" height="330" rx="16.19" stroke-linejoin="round"/><path d="M138.82 276.32c0-13.68 9.57-23.55 23-23.55S184 262.64 184 276.32c0 13.3-8.81 23.56-23 23.56-13 0-22.18-10.26-22.18-23.56zm8.29-48.32l-.77-9.69c-2.33-19.74 4.65-42.08 24-64.43 17.46-19.74 27.16-34.27 27.16-51 0-19-12.41-31.66-36.85-32-14 0-29.49 4.47-39.19 11.54L112.2 58.9C125.39 50 147.12 44 167.68 44c44.62 0 64.8 26.45 64.79 54.75 0 25.33-14.74 43.58-33.37 64.81-17.1 19.37-23.28 36.13-22.1 55.13l.77 9.31z"/></g><defs /></svg>