<svg xmlns="http://www.w3.org/2000/svg" viewBox="0 0 34.05 33.12"><defs><style>.cls-1{fill:#689915;}</style></defs><g id="Layer_2" data-name="Layer 2"><g id="Resume"><g id="ResumeContent"><g id="Software"><g id="Ae_copy_2" data-name="Ae copy 2"><path class="cls-1" d="M13.44,11.75H11.5l-4.33,11H9.44l1-2.75h3.95l1.06,2.75h2.26Zm-2.6,6.77,1.63-4.33L14,18.52Z"/><path class="cls-1" d="M26.82,18.67a4.12,4.12,0,0,0-4.36-4.17,4.22,4.22,0,1,0,0,8.43,4.09,4.09,0,0,0,3.89-2.13l-1.84-.5a2.14,2.14,0,0,1-2,1.11,2.23,2.23,0,0,1-2.22-2h6.46A6.76,6.76,0,0,0,26.82,18.67ZM20.28,18a2.18,2.18,0,0,1,4.34,0Z"/><path class="cls-1" d="M0,0V33.12H34.05V0ZM32.05,31.18H2V1.94H32.05Z"/></g></g></g></g></g></svg>