<svg xmlns="http://www.w3.org/2000/svg" viewBox="0 0 34.11 33.19"><defs><style>.cls-1{fill:#689915;}</style></defs><g id="Layer_2" data-name="Layer 2"><g id="Resume"><g id="ResumeContent"><g id="Software"><g id="Ps_copy_2" data-name="Ps copy 2"><path class="cls-1" d="M14.2,11.77H9.39V22.82h2.2V19.11h2.69a3.6,3.6,0,0,0,3.53-3.67A3.71,3.71,0,0,0,14.2,11.77Zm0,5.46H11.59V13.65h2.46a1.64,1.64,0,0,1,1.52,1.79C15.57,16.53,14.92,17.23,14.15,17.23Z"/><path class="cls-1" d="M22.45,17.93c-.31-.07-1.65-.28-1.65-1s.5-.92,1.28-.92a4.37,4.37,0,0,1,2.43.9l.87-1.26a4.77,4.77,0,0,0-3.28-1.12c-1.75,0-3.3,1-3.3,2.69s2.45,2.13,3,2.27,1.84.41,1.84,1.11-.56.9-1.37.9a5.65,5.65,0,0,1-3-1.07l-.79,1.3A6.09,6.09,0,0,0,22.31,23c1,0,3.39-.32,3.39-2.58C25.7,18.47,23,18.08,22.45,17.93Z"/><path class="cls-1" d="M0,0V33.19H34.11V0ZM32.11,31.24H2V1.94H32.11Z"/></g></g></g></g></g></svg>