<svg xmlns="http://www.w3.org/2000/svg" viewBox="0 0 34.05 33.12"><defs><style>.cls-1{fill:#689915;}</style></defs><g id="Layer_2" data-name="Layer 2"><g id="Resume"><g id="ResumeContent"><g id="Software"><g id="UnrealEngine_copy_2" data-name="UnrealEngine copy 2"><path class="cls-1" d="M0,0V33.12H34.05V0ZM32.05,31.18H2V1.94H32.05Z"/><g id="UE_copy_2" data-name="UE copy 2"><path class="cls-1" d="M11.71,21.71c.24,0,.46.06.69.06a.63.63,0,0,0,.68-.64,1.93,1.93,0,0,0,0-.24c0-2,0-4,0-6A.75.75,0,0,0,12,14.09a3.48,3.48,0,0,0-1.35.83,13.39,13.39,0,0,0-2.8,3.72.75.75,0,0,1-.07.12l-.06.06c0-.36,0-.69,0-1a7.05,7.05,0,0,1,1.48-3.63,17.37,17.37,0,0,1,5.33-4.83A9.7,9.7,0,0,1,17,8.41l-.11.09a4.15,4.15,0,0,0-1.22,1.25,2.37,2.37,0,0,0-.28,1.78c.13.61.42.76,1,.57v8a1.12,1.12,0,0,0,1,1.1,1.63,1.63,0,0,0,1-.18c.4-.22.78-.48,1.16-.73a.28.28,0,0,0,.1-.21c0-2.19,0-4.37,0-6.56a2.24,2.24,0,0,0-1-1.8,2.86,2.86,0,0,1,1.64.33,10.22,10.22,0,0,1,5.3-2.84l-.15.19L23.42,12a1.12,1.12,0,0,0-.25.73V19c0,.4,0,.79,0,1.19a.35.35,0,0,0,.22.34,1.06,1.06,0,0,0,.76.1A3.05,3.05,0,0,0,25.49,20c.48-.37.94-.78,1.43-1.19A13.41,13.41,0,0,1,22,24.2l-1.91-1.57a1.56,1.56,0,0,1-.14.19c-.57.6-1.14,1.2-1.72,1.79a.37.37,0,0,1-.23.1,10.8,10.8,0,0,1-5.21-1.9A5.36,5.36,0,0,1,11.71,21.71Z"/></g></g></g></g></g></g></svg>