<svg xmlns="http://www.w3.org/2000/svg" viewBox="0 0 34.05 33.12"><defs><style>.cls-1{fill:#689915;}</style></defs><g id="Layer_2" data-name="Layer 2"><g id="Resume"><g id="ResumeContent"><g id="Software"><g id="Maya_copy_2" data-name="Maya copy 2"><g id="Maya_copy_2-2" data-name="Maya copy 2"><path class="cls-1" d="M10.1,11.93l.05.08c.56,1.22,1.28,2.47,2,3.68.23.4.47.81.69,1.21a33.61,33.61,0,0,1-2.59,5.33l-.13.22Z"/><path class="cls-1" d="M23.65,16.28l.06-.27.07-.13.06-.1H24v7.6l-.15.14H21.39l-.1,0,0,0,0-.2a8.76,8.76,0,0,0,1.36-3c.11-.38.23-.73.35-1.08"/><path class="cls-1" d="M10.39,23.25A20.07,20.07,0,0,0,13,18.49v4.36a4.89,4.89,0,0,1-2.21.39Z"/><path class="cls-1" d="M17.71,20.14v.28H15.61l-.13-.07c-.66-1.13-1.3-2.27-2-3.41-.91-1.59-1.84-3.24-2.78-4.82-.05-.11-.11-.22-.17-.33a4,4,0,0,1-.21-.41l.12-.19c.85-.11,1.71-.18,2.54-.25l.84-.07L14,11c.46,1.1.91,2.21,1.37,3.32.71,1.72,1.41,3.44,2.1,5.13"/><path class="cls-1" d="M18.71,20.25c-.09-.27-.21-.85-.3-1.09s-.21-.55-.28-.79-.19-.58-.26-.79a2.31,2.31,0,0,1-.16-.54,25.12,25.12,0,0,1,1.37-3.36c.37-.82.76-1.67,1-2.37h3.21C21.74,14.2,20.19,17.17,18.71,20.25Z"/><path class="cls-1" d="M20.9,17.07a47.45,47.45,0,0,0,3-5.86l.31.08c-.37,3.89-1.51,6.41-3,11.16l-.3.47v-.11h0"/></g><path class="cls-1" d="M0,0V33.12H34.05V0ZM32.05,31.18H2V1.94H32.05Z"/></g></g></g></g></g></svg>