<?xml version="1.0" encoding="utf-8"?><svg xmlns="http://www.w3.org/2000/svg" viewBox="0 0 752.28 714.66" xmlns:v="https://vecta.io/nano"><path d="M111 688.74l95.17-228.9-4.22-10.03L99.63 688.74H111zM713.59 206.4l-122.91 2H584l70.22-195.52L651.57 0 492 437.87l-32.59 81.67S453 535.06 450.35 540c-5.19 9.69-16.76 28.46-23.5 37.14C418.38 588 399.12 608 389 617.31a369.51 369.51 0 0 1-29.6 23.49c-8.17 5.66-25.14 16.16-34.11 20.46-12.75 6.13-39.49 15.68-53.05 19.71-8.56 2.54-26.06 6.31-34.86 7.86-12.61 2.23-38 5.53-50.78 6.54-9.32.74-28 1-37.39 1.14-6.35.09-19 .15-25.39 0-6.64-.16-19.91-.68-26.53-1.27-6-.54-18.08-1.86-24-3.16-5.74-1.25-17.14-4.47-22.48-6.94a108.42 108.42 0 0 1-17.18-11c-1.69-1.39-7.31-7.5-9.47-9.86 0 0 14.27 20 17.78 23.69s11.4 11.73 15.82 14.59a96.89 96.89 0 0 0 17.05 8c4.86 1.56 15 3.64 20.08 3.79 26.28.77 101.18 0 101.18 0l23.31-.86s17.82-1.82 23.68-2.93c7.11-1.35 21.07-5.28 28-7.2 8.76-2.41 26.39-7 34.87-10.24 9-3.45 26.36-12 34.77-16.67 9.87-5.54 28.9-17.89 38-24.63s26.08-21 34.1-28.8c7.42-7.19 21.42-22.47 27.66-30.7 5.57-7.32 15.26-23 19.71-31.07 5.22-9.46 14.4-29.06 18.57-39 4.82-11.53 17.05-47 17.05-47l90.34-254.06 122.5-2z" fill="#17243d"/><path d="M679 14.4a154.22 154.22 0 0 1 17 4.67 131.47 131.47 0 0 1 14 6.19A110.41 110.41 0 0 1 722.18 33c4.12 3.12 12.17 9.74 15.41 13.77a88.46 88.46 0 0 1 10.86 19.2c1.31 3.65 3.1 14.78 3.5 19 1 10.71-.34 24.26-2.36 31.19-1.45 5-4.68 12.68-4.68 12.68l-31.32 77.56-129.6 2 70.23-195.52h7.07c9.71 0 12.99.62 17.71 1.52zm-89.86-2.58s-8-.12-10.71 0c-8 .34-23.93 1.56-31.83 2.71-10.79 1.57-32.23 5.78-42.7 8.84-13.1 3.83-38.72 13.55-51 19.45-10.69 5.13-31.28 17.1-40.92 24C402 73.91 383.64 90 375.06 98.65c-7.42 7.47-22.23 24.26-30.49 37.3-6.28 9.91-18.79 36.22-18.79 36.22L111 688.74s50 2.84 92.84-22.17 63.66-55.14 63.66-55.14 32.3-47.07 43.77-76.55l144.2-373.27c4.91-12.36 19.77-41.09 26.33-52.66 6.35-11.22 19.34-33.61 27.28-43.77A222.22 222.22 0 0 1 533 40.55a186.74 186.74 0 0 1 22.92-15.73c5.06-2.78 15.81-7.1 21.22-9.09" fill="#496fb8"/><path d="M59.4 449.81H202L99.63 688.74H111s50 2.84 92.84-22.17 63.66-55.14 63.66-55.14 32.3-47.07 43.77-76.55l144.2-373.27c4.91-12.36 19.77-41.09 26.33-52.66 6.35-11.22 19.34-33.61 27.28-43.77A222.22 222.22 0 0 1 533 40.55a186.74 186.74 0 0 1 22.92-15.73c5.06-2.78 15.81-7.1 21.22-9.09A310.24 310.24 0 0 1 612 5.87c7.31-1.46 14.7-2.77 23.68-4L651.57 0 492 437.87l-32.59 81.67S453 535.06 450.35 540c-5.19 9.69-16.76 28.46-23.5 37.14C418.38 588 399.12 608 389 617.31a369.51 369.51 0 0 1-29.6 23.49c-8.17 5.66-25.14 16.16-34.11 20.46-12.75 6.13-39.49 15.68-53.05 19.71-8.56 2.54-26.06 6.31-34.86 7.86-12.61 2.23-38 5.53-50.78 6.54-9.32.74-28 1-37.39 1.14-6.35.09-19 .15-25.39 0-6.64-.16-19.91-.68-26.53-1.27-6-.54-18.08-1.86-24-3.16-5.74-1.25-17.14-4.47-22.48-6.94a108.42 108.42 0 0 1-17.18-11 91.92 91.92 0 0 1-9.47-9.86c-2.07-2.52-5.72-8-7.46-10.73-1.84-2.95-5.49-9.16-7.2-12.19-1.51-2.69-4.42-7.86-5.68-10.68a51.52 51.52 0 0 1-2.82-8.2 84.84 84.84 0 0 1-1-15 176 176 0 0 1 3.79-25.51c1.41-5.84 7.71-22.74 7.71-22.74z" fill="#eea825"/></svg>