<svg xmlns="http://www.w3.org/2000/svg" xmlns:xlink="http://www.w3.org/1999/xlink" viewBox="0 0 323.08 299.18"><defs><style>.cls-1{fill:#fff;}.cls-2{fill:#050606;}.cls-3{fill:#3b6db5;}.cls-4{fill:url(#linear-gradient);}.cls-5{fill:url(#linear-gradient-2);}.cls-6{fill:url(#linear-gradient-3);}.cls-7{fill:none;stroke:#fff;stroke-miterlimit:10;}</style><linearGradient id="linear-gradient" x1="235.15" y1="143.57" x2="320.88" y2="143.57" gradientUnits="userSpaceOnUse"><stop offset="0.04" stop-color="#939598"/><stop offset="0.35" stop-color="#eaebec"/></linearGradient><linearGradient id="linear-gradient-2" x1="94.3" y1="111.63" x2="299.26" y2="111.63" gradientUnits="userSpaceOnUse"><stop offset="0" stop-color="#00aeef"/><stop offset="1" stop-color="#f1f2f2"/></linearGradient><linearGradient id="linear-gradient-3" x1="0" y1="145.24" x2="209.69" y2="145.24" xlink:href="#linear-gradient"/></defs><g id="Layer_2" data-name="Layer 2"><g id="L_I_Logos" data-name="L&amp;I Logos"><g id="Logo_T-White"><path class="cls-1" d="M8.28,279.66H6.7v-1H3.12v1.92l5.16,1.32v2.61H1.5v-1.84H3.07v1.1H6.7V282.4l-5.15-1.3v-3.16H8.28Z"/><path class="cls-1" d="M17.1,278.67H14.47v5.85H12.89v-5.85H10.27v-.73H17.1Z"/><path class="cls-1" d="M25.86,277.94v6.58H24.28V282.8H20.64v1.72H19.08v-6.58Zm-1.58,4.13v-3.4H20.64v3.4Z"/><path class="cls-1" d="M38.13,277.94v6.58h-10v-6.58h1.58l3.44,4.94,3.44-4.94Zm-8.52,2.42v3.5H32.5l-3-4.41Zm7,3.5v-3.5l.1-.91-3,4.41Z"/><path class="cls-1" d="M47.13,282.44H41.92v2.08H40.35v-6.58h6.78Zm-1.58-.73v-3H41.92v3Z"/><path class="cls-1" d="M50.93,278.67v2.9H54.5v.73H50.93v1.48h4.51v.74H49.36v-6.58h6.08v.73Z"/><path class="cls-1" d="M64.37,284l-2,.55H57.59v-6.58h6.78Zm-1.58-5.3H59.15v5.11H61.7l1.09-.26Z"/><path class="cls-1" d="M78.34,277.94v.73H73.72v4.85l1.1.26h3.52v.74H74.19l-2-.55v-6Z"/><path class="cls-1" d="M87.33,284.52H80.55v-6.58h6.78Zm-1.58-.74v-5.11H82.12v5.11Z"/><path class="cls-1" d="M96.52,277.94v6.58h-7v-6.58h1.59l3.94,4.79-.1-.56v-4.23Zm-1.82,5.92L91,279.44l.08.57v3.85Z"/><path class="cls-1" d="M104.94,277.94v.73h-4.62v4.85l1.1.26h3.52v.74h-4.15l-2-.55v-6Z"/><path class="cls-1" d="M108.72,278.67v5.85h-1.56v-6.58h6.78v4.34h-1.58v-3.61Zm5.88,5.85h-1.73L110,282.28h1.72Z"/><path class="cls-1" d="M117.75,278.67v2.9h3.57v.73h-3.57v1.48h4.51v.74h-6.07v-6.58h6.07v.73Z"/><path class="cls-1" d="M131,278.67h-2.64v5.85h-1.58v-5.85h-2.61v-.73H131Z"/><path class="cls-1" d="M134.54,278.67v2.9h3.56v.73h-3.56v1.48H139v.74H133v-6.58H139v.73Z"/><path class="cls-1" d="M149.72,277v9.4h-1.56V277Z"/><path class="cls-1" d="M165.7,284l-2,.55h-4.74v-6.58h6.78Zm-1.58-5.3h-3.64v5.11H163l1.09-.26Z"/><path class="cls-1" d="M169.5,278.67v2.9h3.56v.73H169.5v1.48H174v.74h-6.07v-6.58H174v.73Z"/><path class="cls-1" d="M182.93,279.66h-1.58v-1h-3.58v1.92l5.16,1.32v2.61h-6.78v-1.84h1.57v1.1h3.63V282.4l-5.15-1.3v-3.16h6.73Z"/><path class="cls-1" d="M186.73,277.94v6.58h-1.56v-6.58Z"/><path class="cls-1" d="M190.53,278.67v4.85l1.1.26h2.43v-2.16h1.49v2.9H191l-2-.55v-6h6.59v.73Z"/><path class="cls-1" d="M204.73,277.94v6.58h-7v-6.58h1.58l3.94,4.79-.1-.56v-4.23Zm-1.83,5.92-3.68-4.42.08.57v3.85Z"/><path class="cls-1" d="M208.52,278.67v2.9h3.57v.73h-3.57v1.48H213v.74H207v-6.58H213v.73Z"/><path class="cls-1" d="M216.75,278.67v5.85h-1.57v-6.58H222v4.34h-1.58v-3.61Zm5.87,5.85H220.9L218,282.28h1.71Z"/><path class="cls-1" d="M232.91,278.67v3.15h3.76v.73h-3.76v2h-1.57v-6.58h6.07v.73Z"/><path class="cls-1" d="M245.38,283.78v.74h-5.82v-6.58h1.57v5.84Z"/><path class="cls-1" d="M254.23,284.52h-6.78v-6.58h6.78Zm-1.58-.74v-5.11H249v5.11Z"/><path class="cls-1" d="M263.24,284.52h-6.78v-6.58h6.78Zm-1.58-.74v-5.11H258v5.11Z"/><path class="cls-1" d="M267,278.67v5.85h-1.57v-6.58h6.79v4.34h-1.59v-3.61Zm5.88,5.85h-1.73l-2.86-2.24H270Z"/><path class="cls-1" d="M287.54,284l-2,.55h-4.75v-6.58h6.78Zm-1.58-5.3h-3.63v5.11h2.55l1.08-.26Z"/><path class="cls-1" d="M291.34,278.67v2.9h3.57v.73h-3.57v1.48h4.51v.74h-6.07v-6.58h6.07v.73Z"/><path class="cls-1" d="M304.18,277.94v.73h-4.62v4.85l1.1.26h3.52v.74H300l-2-.55v-6Z"/><path class="cls-1" d="M313.18,284.52H306.4v-6.58h6.78Zm-1.58-.74v-5.11H308v5.11Z"/><path class="cls-1" d="M317,278.67v5.85h-1.57v-6.58h6.78v4.34h-1.58v-3.61Zm5.88,5.85h-1.73l-2.86-2.24H320Z"/><path class="cls-2" d="M306.29,224.7h16V213.12q-15.15,0-19.48-4.28t-4.32-14.74V176.93h0V94q0-7.24,1.59-11.11T306.92,77q5.2-2,15.39-2V64H236.6V74.94q15.15,0,19.47,4.28T260.39,94v87.16C275.9,201,293.36,217.53,306.29,224.7Z"/><path class="cls-3" d="M221.08,153.33h0C221,153.21,221,153.2,221.08,153.33Z"/><path class="cls-2" d="M300.31,223.85c-6.43-3.38-24.06-5.52-74.73-65.46l-4.5-5.71c-.1-.12-.09-.11,0,0S189.53,114.52,174.56,95c.25,0,18.85-14.35,24-23.31s7.22-18,6.32-27.13a42.92,42.92,0,0,0-.91-5.52,9.34,9.34,0,0,0-.4-2.75C200.24,23.44,190.65,3.27,160.91,1c-12.18-.95-21.53,2.1-28.33,6A34.67,34.67,0,0,0,119,19c-.51.71-.77,1.13-.77,1.13h0c-10.17,16.58-7.76,41.08,2,56,4.36,6.62,11.05,15.49,16.91,24.82-12.12,7.64-24.2,14.31-30,23.38s-9.29,17.08-10.4,24a76.34,76.34,0,0,0-.78,19.33A65.73,65.73,0,0,0,105.67,196a42.78,42.78,0,0,0,7.32,8.7c29.55,2.22,55.9,3.61,75.09-7.6a31.64,31.64,0,0,1-12.32,2.32q-11.17,0-21.66-7.72a64.64,64.64,0,0,1-17.46-19.57,61.9,61.9,0,0,1-7.82-25c-1.39-14.11,4.25-23.91,17.82-33.46l56.45,70.45c.6-.27,24.25,39.87,81.38,39.87h4.8l8.22.06,3.22,0ZM165.21,82.63c-12.44-16.23-22.48-30.55-23.71-43a21.33,21.33,0,0,1,3.81-14.4c7.4-11.07,20.55-8.11,28.32-2.87,5,3.38,22.64,17.89,6.94,43.12C177,71.23,171.69,76.79,165.21,82.63Z"/><path class="cls-2" d="M201.44,189.15a65.38,65.38,0,0,1-6.11,5.84,74.24,74.24,0,0,1-32.05,15.29c-1.27.32-2.52.59-3.73.8-.37.07-.84.13-1.42.19a141.68,141.68,0,0,1-21.68,1.53c-3,.11-9.24.13-16.37.11l-9.53,0c-11.76.2-21.89.29-25.28.29q-10.77,0-15.51-2.42a10.42,10.42,0,0,1-5.8-7.17q-1.07-4.73-1.06-15.62V95.59q0-7.22,1.6-11.06t6.74-5.86q5.16-2,15.22-2V65.76h-85V76.65q10.19,0,15.33,2.13t6.57,6a32.42,32.42,0,0,1,1.43,10.83V196.46q0,10.42-4.27,14.68T1.45,215.4v10.89H187l24.13-26C208.46,197.9,204.09,191.92,201.44,189.15Z"/><path class="cls-4" d="M304.13,223.91h16.75V212.33q-15.15,0-19.47-4.28t-4.32-14.73V176.15h0v-83q0-7.24,1.6-11.11c1.07-2.57,3.34-4.54,6.81-5.88s8.6-2,15.39-2V63.22H235.15V74.16q15.15,0,19.47,4.27t4.32,14.74V181C275,204.27,291.2,216.74,304.13,223.91Z"/><path class="cls-5" d="M298.86,223.07c-6.43-3.39-24.06-5.53-74.74-65.46l-4.49-5.71h0s-31.56-38.17-46.52-57.65c.24,0,18.85-14.34,24-23.31s7.22-18,6.32-27.13a44.73,44.73,0,0,0-.91-5.52,9.34,9.34,0,0,0-.4-2.75c-3.31-12.89-12.89-33-42.64-35.37-12.17-.94-21.52,2.1-28.32,6a34.77,34.77,0,0,0-13.55,12c-.5.71-.76,1.13-.76,1.13h0c-10.16,16.59-7.76,41.08,2.05,56,4.36,6.61,11,15.48,16.91,24.82-34.72,16.16-39.33,40.45-40.43,47.4a75.87,75.87,0,0,0-.78,19.33,65.6,65.6,0,0,0,9.62,28.32,43,43,0,0,0,7.32,8.69c29.54,2.23,57,4.75,76.15-6.46A41.27,41.27,0,0,1,173.61,200q-11.19,0-21.66-7.72c-7-5.14-12.22-11.39-16.86-19.29s-7.27-18.28-8.07-26.34c-1.39-14.1,4.6-24.25,18.17-33.8l56.45,70.45c.6-.27,24.25,39.88,81.38,39.88h4.8l8.22.06,3.22,0ZM163.75,81.84c-12.43-16.23-22.48-30.55-23.7-43a21.38,21.38,0,0,1,3.8-14.4c7.41-11.06,20.56-8.11,28.33-2.86,5,3.38,22.64,17.89,6.94,43.12C175.57,70.44,170.24,76,163.75,81.84Z"/><path class="cls-6" d="M200,188.37a68,68,0,0,1-6.1,5.84,74.33,74.33,0,0,1-32,15.28c-1.27.32-2.52.59-3.73.8-.37.07-.85.13-1.42.19A140.35,140.35,0,0,1,135,212c-3,.12-9.24.13-16.38.11l-9.52,0c-11.76.19-21.89.29-25.28.29q-10.77,0-15.51-2.43a10.4,10.4,0,0,1-5.8-7.16q-1.07-4.74-1.06-15.63V94.81q0-7.23,1.59-11.07t6.75-5.86c3.43-1.34,8.51-2,15.21-2V65H0v10.9q10.19,0,15.33,2.13t6.57,6q1.43,3.84,1.42,10.83V195.67q0,10.43-4.26,14.68T0,214.62v10.89H185.56l24.13-26.06C207,197.11,202.64,191.13,200,188.37Z"/><path class="cls-1" d="M11.4,250.13H7.14V249a2.07,2.07,0,0,0-.17-1,.61.61,0,0,0-.54-.22.73.73,0,0,0-.63.3,1.65,1.65,0,0,0-.21.92,2.4,2.4,0,0,0,.24,1.2,3.32,3.32,0,0,0,1.3,1A12.89,12.89,0,0,1,11,253.75a5.64,5.64,0,0,1,.8,3.38,5.4,5.4,0,0,1-.44,2.49A3.38,3.38,0,0,1,9.63,261a7.42,7.42,0,0,1-2.94.54,7.29,7.29,0,0,1-3.14-.62,3.19,3.19,0,0,1-1.7-1.6,7.37,7.37,0,0,1-.41-2.75v-1H5.7v1.93a2.34,2.34,0,0,0,.18,1.15.72.72,0,0,0,.64.25.79.79,0,0,0,.68-.32,1.71,1.71,0,0,0,.22-1A2.73,2.73,0,0,0,7,255.72a13.22,13.22,0,0,0-2.15-1.44,20.49,20.49,0,0,1-2.26-1.48,3.45,3.45,0,0,1-.92-1.27,5,5,0,0,1-.37-2.08,5.19,5.19,0,0,1,.52-2.66,3.39,3.39,0,0,1,1.67-1.32A7.27,7.27,0,0,1,6.28,245a7.89,7.89,0,0,1,3,.52,3.12,3.12,0,0,1,1.67,1.3,6.34,6.34,0,0,1,.41,2.68Z"/><path class="cls-1" d="M25.42,245.33v10.59a17.51,17.51,0,0,1-.13,2.53,3.29,3.29,0,0,1-.78,1.5,4,4,0,0,1-1.69,1.17,7.09,7.09,0,0,1-2.48.39,7.47,7.47,0,0,1-2.78-.47,4.15,4.15,0,0,1-1.81-1.22,3.16,3.16,0,0,1-.71-1.59c-.07-.56-.11-1.73-.11-3.52v-9.38h4.59v11.88a4.39,4.39,0,0,0,.12,1.33.51.51,0,0,0,.51.29.53.53,0,0,0,.56-.32,5.53,5.53,0,0,0,.12-1.5V245.33Z"/><path class="cls-1" d="M29,245.33h4.61a12.52,12.52,0,0,1,2.89.26,3.3,3.3,0,0,1,1.51.77,2.47,2.47,0,0,1,.68,1.21,9.66,9.66,0,0,1,.18,2.19v1.38a5.32,5.32,0,0,1-.34,2.22,2.3,2.3,0,0,1-1.28,1.06,6.64,6.64,0,0,1-2.44.38H33.56v6.38H29ZM33.56,248v4h.34a1.17,1.17,0,0,0,.88-.27,1.94,1.94,0,0,0,.24-1.16v-1.31a1.39,1.39,0,0,0-.28-1.05A1.88,1.88,0,0,0,33.56,248Z"/><path class="cls-1" d="M42,245.33H49.6v3.17H46.54v3H49.4v3H46.54V258H49.9v3.17H42Z"/><path class="cls-1" d="M53,245.33h3.24a27.69,27.69,0,0,1,4.39.22,3.09,3.09,0,0,1,1.88,1.16,4.81,4.81,0,0,1,.72,2.95,4.21,4.21,0,0,1-.51,2.48,2.82,2.82,0,0,1-2,.77,3.64,3.64,0,0,1,1.83.81,2.4,2.4,0,0,1,.58.94,14.09,14.09,0,0,1,.11,2.34v4.18H59v-5.27a3.26,3.26,0,0,0-.22-1.57c-.15-.21-.54-.31-1.17-.31v7.15H53ZM57.59,248v3.53a2.25,2.25,0,0,0,1.08-.19c.21-.13.31-.54.31-1.24v-.87q0-.77-.3-1A1.78,1.78,0,0,0,57.59,248Z"/><path class="cls-1" d="M71.39,245.33v15.85H66.8V245.33Z"/><path class="cls-1" d="M85.49,254.61a31.6,31.6,0,0,1-.13,3.38,3.61,3.61,0,0,1-.78,1.82,4.18,4.18,0,0,1-1.78,1.26,7,7,0,0,1-2.62.44,7.48,7.48,0,0,1-2.54-.41,4.18,4.18,0,0,1-1.81-1.25A3.59,3.59,0,0,1,75,258a29.65,29.65,0,0,1-.13-3.43V251.9a32.36,32.36,0,0,1,.12-3.38,3.63,3.63,0,0,1,.79-1.82,4.12,4.12,0,0,1,1.78-1.26,7,7,0,0,1,2.61-.44,7.44,7.44,0,0,1,2.54.41,4.21,4.21,0,0,1,1.82,1.25,3.57,3.57,0,0,1,.81,1.81,28.89,28.89,0,0,1,.14,3.43ZM80.9,249.4a4.11,4.11,0,0,0-.14-1.41.54.54,0,0,0-.56-.31.64.64,0,0,0-.55.25,3.33,3.33,0,0,0-.19,1.47v7.4a6.73,6.73,0,0,0,.13,1.71.55.55,0,0,0,.58.32.56.56,0,0,0,.6-.37,7,7,0,0,0,.13-1.77Z"/><path class="cls-1" d="M89,245.33h3.24a27.84,27.84,0,0,1,4.4.22,3.1,3.1,0,0,1,1.87,1.16,4.81,4.81,0,0,1,.72,2.95,4.21,4.21,0,0,1-.51,2.48,2.82,2.82,0,0,1-2,.77,3.55,3.55,0,0,1,1.83.81,2.4,2.4,0,0,1,.58.94,13,13,0,0,1,.11,2.34v4.18H95v-5.27a3.21,3.21,0,0,0-.23-1.57c-.15-.21-.54-.31-1.17-.31v7.15H89ZM93.56,248v3.53a2.33,2.33,0,0,0,1.09-.19c.2-.13.31-.54.31-1.24v-.87q0-.77-.3-1A1.84,1.84,0,0,0,93.56,248Z"/><path class="cls-1" d="M119.19,252.23h-4.58v-2.75a4.39,4.39,0,0,0-.15-1.5c-.1-.2-.31-.3-.65-.3a.71.71,0,0,0-.72.36,5.09,5.09,0,0,0-.15,1.57V257a4.75,4.75,0,0,0,.15,1.51.68.68,0,0,0,.69.35.67.67,0,0,0,.67-.35,5.07,5.07,0,0,0,.16-1.66v-2h4.58v.61a11.27,11.27,0,0,1-.38,3.49,3.72,3.72,0,0,1-1.71,1.81,6.46,6.46,0,0,1-3.27.77,7.49,7.49,0,0,1-3.32-.65,3.36,3.36,0,0,1-1.73-1.82,10.89,10.89,0,0,1-.42-3.49v-4.63a18.12,18.12,0,0,1,.13-2.57,3.38,3.38,0,0,1,.78-1.65,4.36,4.36,0,0,1,1.79-1.25,7.23,7.23,0,0,1,2.64-.45,7.08,7.08,0,0,1,3.35.7,3.54,3.54,0,0,1,1.73,1.76,9.71,9.71,0,0,1,.41,3.27Z"/><path class="cls-1" d="M133.1,254.61A31.6,31.6,0,0,1,133,258a3.53,3.53,0,0,1-.78,1.82,4.18,4.18,0,0,1-1.78,1.26,7,7,0,0,1-2.62.44,7.48,7.48,0,0,1-2.54-.41,4.18,4.18,0,0,1-1.81-1.25,3.59,3.59,0,0,1-.82-1.81,29.65,29.65,0,0,1-.13-3.43V251.9a29.09,29.09,0,0,1,.13-3.38,3.53,3.53,0,0,1,.78-1.82,4.12,4.12,0,0,1,1.78-1.26,7,7,0,0,1,2.61-.44,7.54,7.54,0,0,1,2.55.41,4.24,4.24,0,0,1,1.81,1.25,3.59,3.59,0,0,1,.82,1.81,32,32,0,0,1,.13,3.43Zm-4.59-5.21a4.5,4.5,0,0,0-.13-1.41.56.56,0,0,0-.57-.31.63.63,0,0,0-.54.25,3.13,3.13,0,0,0-.2,1.47v7.4a6.73,6.73,0,0,0,.13,1.71.55.55,0,0,0,.58.32.56.56,0,0,0,.6-.37,7,7,0,0,0,.13-1.77Z"/><path class="cls-1" d="M146.83,245.33v15.85h-4L140.42,254v7.21h-3.83V245.33h3.83l2.57,7.14v-7.14Z"/><path class="cls-1" d="M161.15,252.23h-4.58v-2.75a4.39,4.39,0,0,0-.15-1.5c-.1-.2-.31-.3-.65-.3s-.61.12-.71.36a4.69,4.69,0,0,0-.16,1.57V257a4.39,4.39,0,0,0,.16,1.51.83.83,0,0,0,1.35,0,5.07,5.07,0,0,0,.16-1.66v-2h4.58v.61a11.27,11.27,0,0,1-.38,3.49,3.72,3.72,0,0,1-1.71,1.81,6.42,6.42,0,0,1-3.26.77,7.46,7.46,0,0,1-3.32-.65,3.34,3.34,0,0,1-1.74-1.82,10.89,10.89,0,0,1-.42-3.49v-4.63a18.12,18.12,0,0,1,.13-2.57,3.48,3.48,0,0,1,.78-1.65,4.33,4.33,0,0,1,1.8-1.25,7.16,7.16,0,0,1,2.64-.45,7,7,0,0,1,3.34.7,3.54,3.54,0,0,1,1.73,1.76,9.46,9.46,0,0,1,.41,3.27Z"/><path class="cls-1" d="M164.58,245.33h3.25a27.77,27.77,0,0,1,4.39.22,3.07,3.07,0,0,1,1.87,1.16,4.74,4.74,0,0,1,.73,2.95,4.21,4.21,0,0,1-.51,2.48,2.86,2.86,0,0,1-2,.77,3.55,3.55,0,0,1,1.83.81,2.29,2.29,0,0,1,.58.94,12.57,12.57,0,0,1,.12,2.34v4.18h-4.26v-5.27a3.26,3.26,0,0,0-.22-1.57c-.15-.21-.54-.31-1.17-.31v7.15h-4.59Zm4.59,2.71v3.53a2.31,2.31,0,0,0,1.08-.19c.21-.13.31-.54.31-1.24v-.87q0-.77-.3-1A1.8,1.8,0,0,0,169.17,248Z"/><path class="cls-1" d="M178.38,245.33H186v3.17H183v3h2.86v3H183V258h3.37v3.17h-8Z"/><path class="cls-1" d="M198.37,245.33v3.17h-2.72v12.68h-4.59V248.5h-2.71v-3.17Z"/><path class="cls-1" d="M201.2,245.33h7.64v3.17h-3.06v3h2.86v3h-2.86V258h3.37v3.17h-8Z"/><path class="cls-1" d="M218,245.33h4.62a12.36,12.36,0,0,1,2.88.26,3.25,3.25,0,0,1,1.51.77,2.49,2.49,0,0,1,.69,1.21,9.66,9.66,0,0,1,.18,2.19v1.38a5.29,5.29,0,0,1-.35,2.22,2.27,2.27,0,0,1-1.28,1.06,6.58,6.58,0,0,1-2.43.38h-1.23v6.38H218Zm4.59,2.71v4h.33a1.14,1.14,0,0,0,.88-.27,1.92,1.92,0,0,0,.25-1.16v-1.31a1.38,1.38,0,0,0-.29-1.05A1.87,1.87,0,0,0,222.55,248Z"/><path class="cls-1" d="M230.94,245.33h3.25a27.77,27.77,0,0,1,4.39.22,3.07,3.07,0,0,1,1.87,1.16,4.74,4.74,0,0,1,.73,2.95,4.12,4.12,0,0,1-.52,2.48,2.82,2.82,0,0,1-2,.77,3.55,3.55,0,0,1,1.83.81,2.29,2.29,0,0,1,.58.94,12.57,12.57,0,0,1,.12,2.34v4.18h-4.26v-5.27a3.39,3.39,0,0,0-.22-1.57c-.15-.21-.54-.31-1.18-.31v7.15h-4.58Zm4.58,2.71v3.53a2.33,2.33,0,0,0,1.09-.19c.21-.13.31-.54.31-1.24v-.87q0-.77-.3-1A1.84,1.84,0,0,0,235.52,248Z"/><path class="cls-1" d="M255.21,254.61a32.36,32.36,0,0,1-.12,3.38,3.63,3.63,0,0,1-.79,1.82,4.12,4.12,0,0,1-1.78,1.26,7,7,0,0,1-2.61.44,7.44,7.44,0,0,1-2.54-.41,4.21,4.21,0,0,1-1.82-1.25,3.49,3.49,0,0,1-.81-1.81,29,29,0,0,1-.14-3.43V251.9a31.6,31.6,0,0,1,.13-3.38,3.53,3.53,0,0,1,.78-1.82,4.18,4.18,0,0,1,1.78-1.26,7,7,0,0,1,2.62-.44,7.48,7.48,0,0,1,2.54.41,4.18,4.18,0,0,1,1.81,1.25,3.59,3.59,0,0,1,.82,1.81,29.53,29.53,0,0,1,.13,3.43Zm-4.58-5.21a4.39,4.39,0,0,0-.14-1.41.54.54,0,0,0-.56-.31.64.64,0,0,0-.55.25,3.18,3.18,0,0,0-.19,1.47v7.4a6.94,6.94,0,0,0,.12,1.71.69.69,0,0,0,1.19-.05,7.48,7.48,0,0,0,.13-1.77Z"/><path class="cls-1" d="M258.7,245.33h3.43a24.1,24.1,0,0,1,4.5.27,3.69,3.69,0,0,1,1.78.9,2.81,2.81,0,0,1,.76,1.4,19.27,19.27,0,0,1,.15,3v5.55a11.6,11.6,0,0,1-.22,2.85,2.15,2.15,0,0,1-.78,1.13A3.48,3.48,0,0,1,267,261a13.65,13.65,0,0,1-2.46.16H258.7Zm4.59,2.71v10.43c.66,0,1.07-.12,1.22-.36a4.79,4.79,0,0,0,.23-1.94V250a7.35,7.35,0,0,0-.08-1.38.69.69,0,0,0-.35-.45A2.56,2.56,0,0,0,263.29,248Z"/><path class="cls-1" d="M283.24,245.33v10.59a15.8,15.8,0,0,1-.14,2.53,3.17,3.17,0,0,1-.77,1.5,4.07,4.07,0,0,1-1.69,1.17,7.13,7.13,0,0,1-2.48.39,7.56,7.56,0,0,1-2.79-.47,4.18,4.18,0,0,1-1.8-1.22,3.16,3.16,0,0,1-.71-1.59c-.07-.56-.11-1.73-.11-3.52v-9.38h4.58v11.88a4.27,4.27,0,0,0,.13,1.33.5.5,0,0,0,.51.29.54.54,0,0,0,.56-.32,5.53,5.53,0,0,0,.12-1.5V245.33Z"/><path class="cls-1" d="M297.5,252.23h-4.59v-2.75a4.49,4.49,0,0,0-.14-1.5.66.66,0,0,0-.65-.3q-.57,0-.72.36a5.09,5.09,0,0,0-.15,1.57V257a4.75,4.75,0,0,0,.15,1.51.84.84,0,0,0,1.36,0,5.5,5.5,0,0,0,.15-1.66v-2h4.59v.61a10.9,10.9,0,0,1-.39,3.49,3.72,3.72,0,0,1-1.71,1.81,6.42,6.42,0,0,1-3.26.77,7.49,7.49,0,0,1-3.32-.65,3.32,3.32,0,0,1-1.73-1.82,10.84,10.84,0,0,1-.43-3.49v-4.63a19.78,19.78,0,0,1,.13-2.57,3.48,3.48,0,0,1,.78-1.65,4.4,4.4,0,0,1,1.8-1.25A7.23,7.23,0,0,1,292,245a7,7,0,0,1,3.34.7,3.5,3.5,0,0,1,1.73,1.76,9.41,9.41,0,0,1,.42,3.27Z"/><path class="cls-1" d="M310.16,245.33v3.17h-2.72v12.68h-4.59V248.5h-2.71v-3.17Z"/><path class="cls-1" d="M322.7,250.13h-4.25V249a2.07,2.07,0,0,0-.17-1,.62.62,0,0,0-.54-.22.72.72,0,0,0-.63.3,1.65,1.65,0,0,0-.21.92,2.4,2.4,0,0,0,.24,1.2,3.35,3.35,0,0,0,1.29,1,13,13,0,0,1,3.86,2.68,5.65,5.65,0,0,1,.79,3.38,5.27,5.27,0,0,1-.44,2.49,3.31,3.31,0,0,1-1.7,1.35,7.42,7.42,0,0,1-2.94.54,7.29,7.29,0,0,1-3.14-.62,3.25,3.25,0,0,1-1.71-1.6,7.61,7.61,0,0,1-.4-2.75v-1H317v1.93a2.34,2.34,0,0,0,.18,1.15.72.72,0,0,0,.64.25.79.79,0,0,0,.68-.32,1.79,1.79,0,0,0,.22-1,2.66,2.66,0,0,0-.43-1.83,13,13,0,0,0-2.14-1.44,20.94,20.94,0,0,1-2.27-1.48,3.56,3.56,0,0,1-.92-1.27,6.65,6.65,0,0,1,.16-4.74,3.39,3.39,0,0,1,1.67-1.32,7.27,7.27,0,0,1,2.79-.47,7.89,7.89,0,0,1,3,.52,3.06,3.06,0,0,1,1.66,1.3,6.18,6.18,0,0,1,.41,2.68Z"/><line class="cls-7" x1="1.21" y1="265.57" x2="322.74" y2="265.57"/><path class="cls-1" d="M8.57,296.76l-2.07.54H1.67v-6.57h6.9ZM7,291.46H3.27v5.11H5.86l1.1-.26Z"/><path class="cls-1" d="M11.78,291.46v5.84H10.19v-6.57h6.9v4.34H15.48v-3.61Zm6,5.84H16l-2.91-2.23h1.75Z"/><path class="cls-1" d="M20.31,290.73v6.57h-1.6v-6.57Z"/><path class="cls-1" d="M29.43,290.73,26.3,297.3H24.38l-3.12-6.57h1.56l2.17,4.8.36.84.35-.84,2.17-4.8Z"/><path class="cls-1" d="M32,291.46v2.89H35.6v.74H32v1.48h4.59v.73H30.38v-6.57h6.18v.73Z"/><path class="cls-1" d="M49.69,290.73v6.57H38.09v-6.57h1.59v5.87h3.4v-5.87h1.61v5.87h3.4v-5.87Z"/><path class="cls-1" d="M58.2,290.73v6.57H56.59v-1.72h-3.7v1.72H51.3v-6.57Zm-1.61,4.13v-3.4h-3.7v3.4Z"/><path class="cls-1" d="M64,296.64h2.85v.66H59.65v-.66h2.84v-2.27l-3.34-3.64h1.58l2.51,2.87,2.5-2.87h1.58L64,294.37Z"/><path class="cls-1" d="M75.17,292.45H73.56v-1H69.92v1.92l5.25,1.32v2.6h-6.9v-1.84h1.6v1.11h3.69v-1.38l-5.24-1.31v-3.15h6.85Z"/><path class="cls-1" d="M82.65,289.79v9.39H81.06v-9.39Z"/><path class="cls-1" d="M100.13,290.73v6.57H88.53v-6.57h1.6v5.87h3.4v-5.87h1.61v5.87h3.4v-5.87Z"/><path class="cls-1" d="M108.65,290.73v6.57H107v-1.72h-3.7v1.72h-1.6v-6.57ZM107,294.86v-3.4h-3.7v3.4Z"/><path class="cls-1" d="M116.17,296.57v.73h-5.91v-6.57h1.59v5.84Z"/><path class="cls-1" d="M124.88,290.73l-5.67,4.09v2.48h-1.59v-6.57h1.59v2.4l-.13.59.71-.57,3.33-2.42Zm-2.68,3.85,2.89,2.72h-1.77l-2.83-2.72Z"/><path class="cls-1" d="M138.31,290.73v6.57h-11.6v-6.57h1.59v5.87h3.4v-5.87h1.61v5.87h3.4v-5.87Z"/><path class="cls-1" d="M146.82,290.73v6.57h-1.61v-1.72h-3.7v1.72h-1.59v-6.57Zm-1.61,4.13v-3.4h-3.7v3.4Z"/><path class="cls-1" d="M152.6,296.64h2.84v.66h-7.18v-.66h2.85v-2.27l-3.34-3.64h1.58l2.51,2.87,2.5-2.87h1.58l-3.34,3.64Z"/><path class="cls-1" d="M163.79,292.45h-1.61v-1h-3.65v1.92l5.26,1.32v2.6h-6.9v-1.84h1.59v1.11h3.7v-1.38l-5.24-1.31v-3.15h6.85Z"/><path class="cls-1" d="M171.27,289.79v9.39h-1.59v-9.39Z"/><path class="cls-1" d="M178.75,291.46v3.15h3.82v.73h-3.82v2h-1.6v-6.57h6.18v.73Z"/><path class="cls-1" d="M186.45,290.73v6.57h-1.59v-6.57Z"/><path class="cls-1" d="M189.66,291.46v5.84h-1.6v-6.57H195v4.34h-1.61v-3.61Zm6,5.84h-1.76L191,295.07h1.74Z"/><path class="cls-1" d="M198.18,291.46v2.89h3.64v.74h-3.64v1.48h4.59v.73h-6.18v-6.57h6.18v.73Z"/><path class="cls-1" d="M211.2,295.23h-5.31v2.07H204.3v-6.57h6.9Zm-1.61-.73v-3h-3.7v3Z"/><path class="cls-1" d="M214.4,290.73v6.57h-1.59v-6.57Z"/><path class="cls-1" d="M222.72,291.46H220v5.84h-1.61v-5.84h-2.66v-.73h6.95Z"/><path class="cls-1" d="M231,292.45h-1.61v-1h-3.65v1.92L231,294.7v2.6h-6.9v-1.84h1.59v1.11h3.7v-1.38l-5.24-1.31v-3.15H231Z"/><path class="cls-1" d="M238.44,289.79v9.39h-1.59v-9.39Z"/><path class="cls-1" d="M251.23,295.23h-5.31v2.07h-1.59v-6.57h6.9Zm-1.61-.73v-3h-3.7v3Z"/><path class="cls-1" d="M259.74,297.3h-6.9v-6.57h6.9Zm-1.61-.73v-5.11h-3.7v5.11Z"/><path class="cls-1" d="M268.25,297.3h-6.9v-6.57h6.9Zm-1.61-.73v-5.11h-3.7v5.11Z"/><path class="cls-1" d="M275.78,296.57v.73h-5.92v-6.57h1.6v5.84Z"/><path class="cls-1" d="M288.4,296.76l-2.07.54H281.5v-6.57h6.9Zm-1.61-5.3h-3.7v5.11h2.6l1.1-.26Z"/><path class="cls-1" d="M291.6,291.46v2.89h3.63v.74H291.6v1.48h4.59v.73H290v-6.57h6.18v.73Z"/><path class="cls-1" d="M304,290.73v.73h-4.7v4.85l1.12.26H304v.73h-4.22l-2.07-.54v-6Z"/><path class="cls-1" d="M312.86,290.73l-5.66,4.09v2.48h-1.6v-6.57h1.6v2.4l-.14.59.71-.57,3.34-2.42Zm-2.67,3.85,2.89,2.72H311.3l-2.82-2.72Z"/><path class="cls-1" d="M321.59,292.45H320v-1h-3.65v1.92l5.26,1.32v2.6h-6.9v-1.84h1.59v1.11H320v-1.38l-5.24-1.31v-3.15h6.85Z"/></g></g></g></svg>